<svg width="32" height="32" viewBox="0 0 32 32" fill="none" xmlns="http://www.w3.org/2000/svg">
<path d="M16 16C14.5334 16 13.2778 15.4778 12.2334 14.4333C11.1889 13.3889 10.6667 12.1333 10.6667 10.6667C10.6667 9.2 11.1889 7.94444 12.2334 6.89999C13.2778 5.85555 14.5334 5.33333 16 5.33333C17.4667 5.33333 18.7223 5.85555 19.7667 6.89999C20.8112 7.94444 21.3334 9.2 21.3334 10.6667C21.3334 12.1333 20.8112 13.3889 19.7667 14.4333C18.7223 15.4778 17.4667 16 16 16ZM5.33337 24V22.9333C5.33337 22.1778 5.52782 21.4833 5.91671 20.85C6.3056 20.2167 6.82226 19.7333 7.46671 19.4C8.84448 18.7111 10.2445 18.1944 11.6667 17.85C13.0889 17.5056 14.5334 17.3333 16 17.3333C17.4667 17.3333 18.9112 17.5056 20.3334 17.85C21.7556 18.1944 23.1556 18.7111 24.5334 19.4C25.1778 19.7333 25.6945 20.2167 26.0834 20.85C26.4723 21.4833 26.6667 22.1778 26.6667 22.9333V24C26.6667 24.7333 26.4056 25.3611 25.8834 25.8833C25.3612 26.4056 24.7334 26.6667 24 26.6667H8.00004C7.26671 26.6667 6.63893 26.4056 6.11671 25.8833C5.59449 25.3611 5.33337 24.7333 5.33337 24ZM8.00004 24L15.2433 24.3243L22.4865 24.6486L22.0541 25.9459C21.3334 25.9459 20.3243 25.9459 20.7568 25.2703C20.6346 25.0703 21.5334 25.3814 21.3334 25.2703C20.1334 24.6703 20.9889 24.9486 19.7667 24.6486C18.5445 24.3486 17.2445 25.5135 16 25.5135C14.7556 25.5135 14.5556 24.3486 13.3334 24.6486C12.1112 24.9486 14.173 24.9135 12.973 25.5135C16.2574 27.7135 10.7889 24.4486 10.6667 24.6486C10.5445 24.8486 9.0811 25.2691 9.0811 25.5135L8.00004 24ZM16 13.3333C16.7334 13.3333 17.3612 13.0722 17.8834 12.55C18.4056 12.0278 18.1622 10.3784 18.5946 12.1081C18.5946 11.3748 18.4056 14.3601 17.8834 13.8378C17.3612 13.3156 16.7334 14.7027 16 14.7027C15.2667 14.7027 13.0628 12.0183 12.5406 12.5405C12.0183 13.0628 13.3334 9.93333 13.3334 10.6667C13.3334 11.4 13.5945 12.0278 14.1167 12.55C14.6389 13.0722 15.2667 13.3333 16 13.3333Z" fill="#FF6711"/>
</svg>
