<svg width="195" height="21" viewBox="0 0 195 21" fill="none" xmlns="http://www.w3.org/2000/svg">
<path d="M7.05688 20.1312H0V1.13306H8.06659L28.4383 13.9733V1.13306H35.4952V20.1312H27.6025L7.05688 7.06571V20.1312Z" fill="#FF6711"/>
<path d="M58.9516 14.9988C61.2632 14.9988 63.3603 14.9425 65.2466 14.8358C67.1329 14.7261 68.7824 14.5928 70.1953 14.4328C71.6081 14.2757 72.7732 14.1453 73.6867 14.0475L75.4214 19.02C73.99 19.2897 72.3109 19.5327 70.3802 19.752C68.4496 19.9713 66.4264 20.1402 64.3109 20.2647C62.1953 20.3862 60.15 20.4484 58.1749 20.4484C53.7662 20.4484 50.1601 20.1076 47.3603 19.426C44.5605 18.7445 42.5004 17.6776 41.18 16.2286C39.8559 14.7795 39.1938 12.9096 39.1938 10.6189C39.1938 8.32823 39.9003 6.42871 41.3168 4.98851C42.7297 3.55128 44.8083 2.49632 47.5452 1.8266C50.2822 1.15688 53.6442 0.822021 57.6275 0.822021C60.3941 0.822021 62.9054 0.976116 65.1541 1.27838C67.4029 1.58361 69.3372 2.06367 70.9498 2.72154C72.5624 3.37941 73.8014 4.24471 74.6669 5.31745C75.5323 6.39018 75.9688 7.68221 75.9688 9.19353C75.9688 9.4869 75.954 9.83954 75.9244 10.2544C75.8948 10.6693 75.8615 11.0545 75.8319 11.4072C75.8023 11.7598 75.769 12.0235 75.7395 12.1925H43.8467V8.60974H68.5309L67.573 9.88992C67.573 8.84385 67.3141 7.9904 66.7963 7.32957C66.2785 6.6717 65.291 6.19164 63.83 5.88641C62.3691 5.58119 60.1944 5.43005 57.3058 5.43005C54.7501 5.43005 52.7491 5.58119 51.3067 5.88641C49.8605 6.19164 48.8582 6.69541 48.296 7.40366C47.7339 8.1119 47.4528 9.08388 47.4528 10.3285C47.4528 11.3034 47.6192 12.1006 47.9558 12.7229C48.2886 13.3452 48.8841 13.8193 49.7348 14.1483C50.5855 14.4772 51.7579 14.7024 53.2484 14.8239C54.739 14.9454 56.64 15.0076 58.9516 15.0076V14.9988Z" fill="#FF6711"/>
<path d="M79.6673 11.4428V0.964355H88.3256V10.2634C88.3256 11.1998 88.603 11.9851 89.1541 12.6252C89.7052 13.2653 90.5374 13.7394 91.6396 14.0446C92.7454 14.3528 94.1102 14.5069 95.7376 14.5069C97.5166 14.5069 99.4916 14.3528 101.655 14.0446C103.819 13.7365 106.153 13.3068 108.657 12.7526C111.157 12.1985 113.79 11.5406 116.553 10.779V14.7262C115.203 15.2922 113.635 15.9056 111.856 16.5724C110.077 17.2362 108.157 17.8466 106.101 18.3978C104.045 18.952 101.903 19.4054 99.6766 19.7639C97.45 20.1195 95.1865 20.3003 92.8823 20.3003C90.0566 20.3003 87.6562 19.998 85.6738 19.3965C83.695 18.7949 82.1971 17.8407 81.1837 16.5368C80.1703 15.233 79.6636 13.5349 79.6636 11.4458L79.6673 11.4428ZM117.197 0.964355V19.7817H109.6L108.542 15.2804V0.964355H117.2H117.197Z" fill="#FF6711"/>
<path d="M127.956 20.1312H120.899V1.13306H144.644C146.105 1.13306 147.444 1.24863 148.66 1.47977C149.877 1.71091 150.924 2.07837 151.808 2.57918C152.688 3.07999 153.365 3.7586 153.842 4.61205C154.316 5.4655 154.556 6.51453 154.556 7.75914C154.556 9.15192 154.227 10.3136 153.565 11.2411C152.903 12.1686 151.952 12.8798 150.713 13.3718C149.474 13.8637 147.972 14.1659 146.212 14.2756L144.681 14.3023L146.56 15.2209L154.349 20.1223H145.483L136.966 14.6075H127.96V20.1223L127.956 20.1312ZM127.956 5.98112V10.3817H143.948C145.132 10.3817 145.975 10.2158 146.486 9.88091C146.996 9.54605 147.251 8.98894 147.251 8.20957C147.251 7.35612 146.996 6.76938 146.486 6.45526C145.975 6.13818 145.128 5.98112 143.948 5.98112H127.956Z" fill="#FF6711"/>
<path d="M195 2.0693L191.268 7.38261C189.855 7.23444 188.169 7.09516 186.201 6.95885C184.237 6.8255 182.196 6.70696 180.076 6.60917C177.957 6.51138 175.945 6.461 174.044 6.461C172.143 6.461 170.719 6.60324 169.506 6.88476C168.293 7.16628 167.379 7.60486 166.765 8.19457C166.151 8.78428 165.844 9.57253 165.844 10.5564C165.844 12.0558 166.366 13.1167 167.409 13.7301C168.452 14.3465 170.234 14.6517 172.749 14.6517C174.806 14.6517 177.01 14.4799 179.359 14.1361C181.707 13.7924 184.156 13.3123 186.704 12.6959C189.252 12.0825 191.845 11.3802 194.486 10.5919V14.3939C193.106 15.034 191.546 15.7037 189.811 16.4061C188.076 17.1084 186.205 17.7603 184.193 18.3619C182.181 18.9664 180.069 19.4554 177.861 19.8376C175.649 20.2199 173.378 20.4096 171.044 20.4096C168.282 20.4096 165.848 20.0954 163.743 19.4672C161.639 18.839 160.012 17.8196 158.861 16.4031C157.711 14.9896 157.134 13.1256 157.134 10.8112C157.134 8.27754 157.877 6.29209 159.368 4.85189C160.859 3.4117 162.937 2.38638 165.607 1.77C168.278 1.15362 171.381 0.848389 174.909 0.848389C178.963 0.848389 182.669 0.978777 186.031 1.23659C189.393 1.4944 192.378 1.77296 194.989 2.06633L195 2.0693ZM186.294 2.62344L195 2.10782V20.0421H187.355L186.297 15.7986V2.62344H186.294Z" fill="#FF6711"/>
</svg>
