<?xml version="1.0" encoding="utf-8"?>
<!-- Generator: Adobe Illustrator 23.1.0, SVG Export Plug-In . SVG Version: 6.00 Build 0)  -->
<svg version="1.1" id="Layer_1" xmlns="http://www.w3.org/2000/svg" xmlns:xlink="http://www.w3.org/1999/xlink" x="0px" y="0px"
	 viewBox="0 0 166 21" style="enable-background:new 0 0 166 21;" xml:space="preserve">
<style type="text/css">
	.st0{fill:#FF6711;}
</style>
<path class="st0" d="M6,20.6H0V1.3h6.9l17.3,13.1V1.3h6v19.4h-6.7L6,7.3V20.6z"/>
<path class="st0" d="M50.2,15.4c2,0,3.8-0.1,5.4-0.2c1.6-0.1,3-0.2,4.2-0.4c1.2-0.2,2.2-0.3,3-0.4l1.5,5.1c-1.2,0.3-2.6,0.5-4.3,0.7
	c-1.6,0.2-3.4,0.4-5.2,0.5c-1.8,0.1-3.5,0.2-5.2,0.2c-3.8,0-6.8-0.3-9.2-1c-2.4-0.7-4.1-1.8-5.3-3.3c-1.1-1.5-1.7-3.4-1.7-5.7
	c0-2.3,0.6-4.3,1.8-5.7c1.2-1.5,3-2.5,5.3-3.2s5.2-1,8.6-1c2.4,0,4.5,0.2,6.4,0.5c1.9,0.3,3.6,0.8,4.9,1.5c1.4,0.7,2.4,1.6,3.2,2.6
	c0.7,1.1,1.1,2.4,1.1,4c0,0.3,0,0.7,0,1.1c0,0.4-0.1,0.8-0.1,1.2c0,0.4-0.1,0.6-0.1,0.8H37.3V8.9h21l-0.8,1.3c0-1.1-0.2-1.9-0.7-2.6
	c-0.4-0.7-1.3-1.2-2.5-1.5c-1.2-0.3-3.1-0.5-5.6-0.5c-2.2,0-3.9,0.2-5.1,0.5c-1.2,0.3-2.1,0.8-2.6,1.5c-0.5,0.7-0.7,1.7-0.7,3
	c0,1,0.1,1.8,0.4,2.4c0.3,0.6,0.8,1.1,1.5,1.5c0.7,0.3,1.7,0.6,3,0.7C46.6,15.4,48.2,15.4,50.2,15.4L50.2,15.4z"/>
<path class="st0" d="M67.8,11.8V1.1h7.4v9.5c0,1,0.2,1.8,0.7,2.4c0.5,0.7,1.2,1.1,2.1,1.4c0.9,0.3,2.1,0.5,3.5,0.5
	c1.5,0,3.2-0.2,5-0.5c1.8-0.3,3.8-0.8,6-1.3c2.1-0.6,4.4-1.2,6.7-2v4c-1.1,0.6-2.5,1.2-4,1.9c-1.5,0.7-3.1,1.3-4.9,1.9
	c-1.8,0.6-3.6,1-5.5,1.4c-1.9,0.4-3.8,0.5-5.8,0.5c-2.4,0-4.4-0.3-6.1-0.9c-1.7-0.6-3-1.6-3.8-2.9C68.2,15.6,67.8,13.9,67.8,11.8
	L67.8,11.8z M99.8,1.1v19.2h-6.5l-0.9-4.6V1.1H99.8L99.8,1.1z"/>
<path class="st0" d="M108.9,20.6h-6V1.3h20.2c1.2,0,2.4,0.1,3.4,0.4c1,0.2,1.9,0.6,2.7,1.1c0.8,0.5,1.3,1.2,1.7,2.1
	c0.4,0.9,0.6,1.9,0.6,3.2c0,1.4-0.3,2.6-0.8,3.6c-0.6,0.9-1.4,1.7-2.4,2.2c-1.1,0.5-2.3,0.8-3.8,0.9l-1.3,0l1.6,0.9l6.6,5h-7.5
	l-7.3-5.6h-7.7L108.9,20.6L108.9,20.6z M108.9,6.2v4.5h13.6c1,0,1.7-0.2,2.2-0.5c0.4-0.3,0.7-0.9,0.7-1.7c0-0.9-0.2-1.5-0.7-1.8
	c-0.4-0.3-1.2-0.5-2.2-0.5H108.9z"/>
<path class="st0" d="M166,2.2l-3.2,5.4c-1.2-0.2-2.6-0.3-4.3-0.4c-1.7-0.1-3.4-0.3-5.2-0.4c-1.8-0.1-3.5-0.2-5.1-0.2
	c-1.6,0-2.8,0.1-3.9,0.4c-1,0.3-1.8,0.7-2.3,1.3c-0.5,0.6-0.8,1.4-0.8,2.4c0,1.5,0.4,2.6,1.3,3.2c0.9,0.6,2.4,0.9,4.5,0.9
	c1.8,0,3.6-0.2,5.6-0.5c2-0.4,4.1-0.8,6.3-1.5c2.2-0.6,4.4-1.3,6.6-2.1v3.9c-1.2,0.7-2.5,1.3-4,2.1c-1.5,0.7-3.1,1.4-4.8,2
	c-1.7,0.6-3.5,1.1-5.4,1.5c-1.9,0.4-3.8,0.6-5.8,0.6c-2.4,0-4.4-0.3-6.2-1c-1.8-0.6-3.2-1.7-4.2-3.1c-1-1.4-1.5-3.3-1.5-5.7
	c0-2.6,0.6-4.6,1.9-6.1c1.3-1.5,3-2.5,5.3-3.1c2.3-0.6,4.9-0.9,7.9-0.9c3.5,0,6.6,0.1,9.5,0.4C161.2,1.6,163.8,1.9,166,2.2L166,2.2z
	 M158.6,2.8l7.4-0.5v18.3h-6.5l-0.9-4.3L158.6,2.8L158.6,2.8z"/>
</svg>
