<svg width="54" height="57" viewBox="0 0 54 57" fill="none" xmlns="http://www.w3.org/2000/svg">
<rect x="0.242676" width="52.8088" height="57" rx="6" fill="white"/>
<path d="M21.6431 41.5386C20.6664 40.7684 20.4989 39.3522 21.2691 38.3754L38.8979 16.0186C39.6681 15.0418 41.0843 14.8744 42.0611 15.6446C43.0379 16.4148 43.2053 17.831 42.4351 18.8078L24.8063 41.1645C24.0361 42.1413 22.6199 42.3088 21.6431 41.5386Z" fill="#FF6711"/>
<rect x="12.2056" y="29.7232" width="16.6858" height="4.511" rx="2.2555" transform="rotate(37.4376 12.2056 29.7232)" fill="#FF6711"/>
<rect x="12.2056" y="29.7232" width="16.6858" height="4.511" rx="2.2555" transform="rotate(37.4376 12.2056 29.7232)" fill="#FF6711"/>
<rect x="12.2056" y="29.7232" width="16.6858" height="4.511" rx="2.2555" transform="rotate(37.4376 12.2056 29.7232)" fill="#FF6711"/>
<rect x="12.2056" y="29.7232" width="16.6858" height="4.511" rx="2.2555" transform="rotate(37.4376 12.2056 29.7232)" fill="#FF6711"/>
</svg>
