<svg width="17" height="17" viewBox="0 0 17 17" fill="none" xmlns="http://www.w3.org/2000/svg">
<path d="M12.7844 0H4.06771C1.82162 0 0 1.75137 0 3.91085V12.2915C0 14.451 1.82162 16.2023 4.06771 16.2023H12.7844C15.0305 16.2023 16.8522 14.451 16.8522 12.2915V3.91085C16.8522 1.75137 15.0305 0 12.7844 0ZM15.3992 12.0116C15.3992 13.5539 14.0975 14.8054 12.4934 14.8054H4.35878C2.75466 14.8054 1.45293 13.5539 1.45293 12.0116V4.1907C1.45293 2.64844 2.75466 1.3969 4.35878 1.3969H12.4942C14.0983 1.3969 15.4 2.64844 15.4 4.1907V12.0116H15.3992Z" fill="#424242" fill-opacity="0.65"/>
<path d="M8.43487 3.91113C6.0295 3.91113 4.0769 5.78844 4.0769 8.10106C4.0769 10.4137 6.0295 12.291 8.43487 12.291C10.8402 12.291 12.7928 10.4137 12.7928 8.10106C12.7928 5.78844 10.8402 3.91113 8.43487 3.91113ZM8.43487 10.8949C6.83399 10.8949 5.52902 9.64021 5.52902 8.10106C5.52902 6.5619 6.83399 5.30726 8.43487 5.30726C10.0358 5.30726 11.3407 6.5619 11.3407 8.10106C11.3407 9.64099 10.0358 10.8949 8.43487 10.8949Z" fill="#424242" fill-opacity="0.65"/>
<path d="M13.0835 4.46925C13.5649 4.46925 13.9551 4.09422 13.9551 3.6316C13.9551 3.16897 13.5649 2.79395 13.0835 2.79395C12.6021 2.79395 12.2119 3.16897 12.2119 3.6316C12.2119 4.09422 12.6021 4.46925 13.0835 4.46925Z" fill="#424242" fill-opacity="0.65"/>
</svg>
