<svg width="152" height="22" viewBox="0 0 152 22" fill="none" xmlns="http://www.w3.org/2000/svg">
<path d="M5.50075 20.9579H0V0.77121H6.2878L22.1673 14.4148V0.77121H27.6681V20.9579H21.5158L5.50075 7.07503V20.9579Z" fill="#424242" fill-opacity="0.5"/>
<path d="M45.952 15.5041C47.7538 15.5041 49.3885 15.4443 50.8588 15.3309C52.3291 15.2144 53.6149 15.0727 54.7162 14.9027C55.8175 14.7358 56.7257 14.5973 57.4378 14.4933L58.7899 19.777C57.6742 20.0635 56.3653 20.3217 54.8604 20.5547C53.3555 20.7877 51.7785 20.9672 50.1294 21.0994C48.4803 21.2285 46.886 21.2947 45.3465 21.2947C41.91 21.2947 39.0991 20.9326 36.9167 20.2083C34.7342 19.4841 33.1284 18.3506 32.0992 16.8108C31.0671 15.2711 30.551 13.2842 30.551 10.8502C30.551 8.41624 31.1017 6.39788 32.2059 4.86759C33.3072 3.34044 34.9274 2.21948 37.0608 1.50786C39.1942 0.79624 41.8149 0.44043 44.9198 0.44043C47.0763 0.44043 49.0339 0.604165 50.7867 0.925339C52.5396 1.24966 54.0474 1.75976 55.3044 2.45878C56.5614 3.15781 57.5272 4.07725 58.2018 5.2171C58.8764 6.35695 59.2166 7.72981 59.2166 9.33568C59.2166 9.6474 59.2051 10.0221 59.182 10.4629C59.1589 10.9038 59.133 11.3131 59.1099 11.6878C59.0869 12.0625 59.0609 12.3427 59.0379 12.5222H34.1778V8.71537H53.4189L52.6722 10.0756C52.6722 8.96412 52.4704 8.05728 52.0668 7.35511C51.6632 6.65608 50.8934 6.14598 49.7546 5.82166C48.6158 5.49734 46.9206 5.33675 44.669 5.33675C42.6769 5.33675 41.1172 5.49734 39.9928 5.82166C38.8656 6.14598 38.0843 6.68127 37.6461 7.43383C37.2078 8.18638 36.9887 9.21917 36.9887 10.5417C36.9887 11.5776 37.1185 12.4246 37.3808 13.0859C37.6403 13.7471 38.1045 14.2509 38.7675 14.6004C39.4306 14.9499 40.3445 15.1892 41.5064 15.3183C42.6682 15.4474 44.1501 15.5135 45.952 15.5135V15.5041Z" fill="#424242" fill-opacity="0.5"/>
<path d="M62.0996 11.7254V0.591431H68.8486V10.4722C68.8486 11.4672 69.0649 12.3017 69.4944 12.9818C69.924 13.6619 70.5727 14.1657 71.4318 14.4901C72.2938 14.8175 73.3576 14.9813 74.6262 14.9813C76.0129 14.9813 77.5524 14.8175 79.2389 14.4901C80.9255 14.1626 82.7447 13.706 84.6964 13.1172C86.6453 12.5284 88.698 11.8294 90.8516 11.0201V15.2143C89.7993 15.8157 88.5769 16.4675 87.1902 17.176C85.8035 17.8813 84.3072 18.5299 82.7043 19.1156C81.1014 19.7044 79.4321 20.1862 77.6965 20.5672C75.961 20.945 74.1966 21.1371 72.4005 21.1371C70.1979 21.1371 68.3268 20.8159 66.7815 20.1767C65.2391 19.5375 64.0715 18.5236 63.2816 17.1382C62.4916 15.7527 62.0967 13.9485 62.0967 11.7286L62.0996 11.7254ZM91.3533 0.591431V20.5861H85.4316L84.6071 15.8031V0.591431H91.3562H91.3533Z" fill="#424242" fill-opacity="0.5"/>
<path d="M99.74 20.9579H94.2393V0.77121H112.748C113.887 0.77121 114.93 0.894011 115.879 1.13961C116.827 1.38522 117.643 1.77566 118.332 2.3078C119.019 2.83994 119.546 3.56101 119.918 4.46785C120.287 5.3747 120.474 6.48936 120.474 7.81184C120.474 9.29175 120.218 10.5261 119.702 11.5116C119.186 12.4972 118.445 13.2529 117.479 13.7756C116.513 14.2983 115.343 14.6195 113.97 14.736L112.777 14.7643L114.241 15.7404L120.313 20.9485H113.402L106.763 15.0886H99.7429V20.9485L99.74 20.9579ZM99.74 5.92258V10.5985H112.206C113.129 10.5985 113.786 10.4222 114.184 10.0663C114.582 9.71054 114.781 9.11857 114.781 8.29045C114.781 7.38361 114.582 6.76015 114.184 6.42638C113.786 6.08947 113.126 5.92258 112.206 5.92258H99.74Z" fill="#424242" fill-opacity="0.5"/>
<path d="M152 1.76604L149.091 7.41177C147.99 7.25433 146.675 7.10634 145.141 6.96149C143.61 6.8198 142.019 6.69385 140.367 6.58994C138.715 6.48603 137.147 6.4325 135.665 6.4325C134.183 6.4325 133.073 6.58364 132.127 6.88277C131.182 7.18191 130.47 7.64792 129.991 8.27453C129.513 8.90113 129.273 9.7387 129.273 10.7841C129.273 12.3774 129.68 13.5046 130.493 14.1564C131.306 14.8114 132.695 15.1357 134.656 15.1357C136.259 15.1357 137.977 14.953 139.808 14.5878C141.638 14.2225 143.547 13.7124 145.533 13.0575C147.52 12.4057 149.541 11.6594 151.599 10.8219V14.8617C150.524 15.5419 149.307 16.2535 147.955 16.9997C146.603 17.746 145.144 18.4387 143.576 19.0779C142.007 19.7203 140.361 20.2398 138.64 20.646C136.916 21.0522 135.146 21.2537 133.327 21.2537C131.173 21.2537 129.276 20.9199 127.636 20.2524C125.995 19.5849 124.727 18.5017 123.83 16.9966C122.934 15.4946 122.484 13.5141 122.484 11.0549C122.484 8.36269 123.063 6.25302 124.225 4.72272C125.387 3.19243 127.007 2.10296 129.089 1.44801C131.17 0.793072 133.589 0.46875 136.34 0.46875C139.499 0.46875 142.388 0.607295 145.009 0.881238C147.629 1.15518 149.956 1.45116 151.991 1.76289L152 1.76604ZM145.213 2.35486L152 1.80697V20.8633H146.041L145.216 16.3542V2.35486H145.213Z" fill="#424242" fill-opacity="0.5"/>
</svg>
