<svg width="22" height="22" viewBox="0 0 22 22" fill="none" xmlns="http://www.w3.org/2000/svg">
<path d="M10.9999 11C9.53325 11 8.2777 10.4778 7.23325 9.43333C6.18881 8.38888 5.66659 7.13333 5.66659 5.66666C5.66659 4.2 6.18881 2.94444 7.23325 1.89999C8.2777 0.85555 9.53325 0.333328 10.9999 0.333328C12.4666 0.333328 13.7221 0.85555 14.7666 1.89999C15.811 2.94444 16.3333 4.2 16.3333 5.66666C16.3333 7.13333 15.811 8.38888 14.7666 9.43333C13.7221 10.4778 12.4666 11 10.9999 11ZM0.333252 19V17.9333C0.333252 17.1778 0.527696 16.4833 0.916585 15.85C1.30547 15.2167 1.82214 14.7333 2.46659 14.4C3.84436 13.7111 5.24436 13.1944 6.66659 12.85C8.08881 12.5056 9.53325 12.3333 10.9999 12.3333C12.4666 12.3333 13.911 12.5056 15.3333 12.85C16.7555 13.1944 18.1555 13.7111 19.5333 14.4C20.1777 14.7333 20.6944 15.2167 21.0833 15.85C21.4721 16.4833 21.6666 17.1778 21.6666 17.9333V19C21.6666 19.7333 21.4055 20.3611 20.8833 20.8833C20.361 21.4056 19.7333 21.6667 18.9999 21.6667H2.99992C2.26659 21.6667 1.63881 21.4056 1.11659 20.8833C0.594363 20.3611 0.333252 19.7333 0.333252 19ZM2.99992 19L10.2432 19.3243L17.4864 19.6486L17.054 20.9459C16.3333 20.9459 15.3242 20.9459 15.7567 20.2703C15.6344 20.0703 16.5333 20.3814 16.3333 20.2703C15.1333 19.6703 15.9888 19.9486 14.7666 19.6486C13.5444 19.3486 12.2444 20.5135 10.9999 20.5135C9.75547 20.5135 9.55547 19.3486 8.33325 19.6486C7.11103 19.9486 9.17287 19.9135 7.97287 20.5135C11.2573 22.7135 5.78881 19.4486 5.66659 19.6486C5.54436 19.8486 4.08098 20.2691 4.08098 20.5135L2.99992 19ZM10.9999 8.33333C11.7333 8.33333 12.361 8.07222 12.8833 7.54999C13.4055 7.02777 13.1621 5.37837 13.5945 7.1081C13.5945 6.37477 13.4055 9.36005 12.8833 8.83783C12.361 8.31561 11.7333 9.70269 10.9999 9.70269C10.2666 9.70269 8.06266 7.01831 7.54044 7.54053C7.01822 8.06275 8.33325 4.93333 8.33325 5.66666C8.33325 6.39999 8.59436 7.02777 9.11658 7.54999C9.63881 8.07222 10.2666 8.33333 10.9999 8.33333Z" fill="#424242"/>
</svg>
