<svg width="105" height="61" viewBox="0 0 105 61" fill="none" xmlns="http://www.w3.org/2000/svg">
<rect width="105" height="61" rx="6" fill="#9F97CA"/>
<path d="M32 43.3141V20.5C32 19.6716 31.3284 19 30.5 19H14.5C13.6716 19 13 19.6716 13 20.5V43.3141C13 44.6594 14.6343 45.3245 15.5738 44.3615L21.4262 38.3617C22.0149 37.7582 22.9851 37.7582 23.5738 38.3617L29.4262 44.3615C30.3657 45.3245 32 44.6594 32 43.3141Z" stroke="white" stroke-width="3"/>
<path d="M63.3695 39V35.642H55.8715V33.94L63.7605 22.785H65.6925V33.779H68.1075V35.642H65.6925V39H63.3695ZM63.3695 33.779V25.614H63.8985L57.7345 34.354V33.779H63.3695ZM75.5045 39.207C73.6338 39.207 72.1772 38.8083 71.1345 38.011C70.0918 37.2137 69.5705 36.102 69.5705 34.676C69.5705 33.5413 69.9155 32.606 70.6055 31.87C71.2955 31.1187 72.2002 30.6663 73.3195 30.513V30.927C72.3075 30.7123 71.4948 30.2447 70.8815 29.524C70.2835 28.8033 69.9845 27.9293 69.9845 26.902C69.9845 25.5527 70.4752 24.4947 71.4565 23.728C72.4378 22.9613 73.7872 22.578 75.5045 22.578C77.2372 22.578 78.5942 22.9613 79.5755 23.728C80.5568 24.4947 81.0475 25.5527 81.0475 26.902C81.0475 27.9293 80.7562 28.811 80.1735 29.547C79.6062 30.2677 78.8242 30.72 77.8275 30.904V30.513C78.9315 30.6663 79.8132 31.1187 80.4725 31.87C81.1318 32.606 81.4615 33.5413 81.4615 34.676C81.4615 36.102 80.9402 37.2137 79.8975 38.011C78.8548 38.8083 77.3905 39.207 75.5045 39.207ZM75.5045 37.321C76.7465 37.321 77.6742 37.091 78.2875 36.631C78.9008 36.1557 79.2075 35.4503 79.2075 34.515C79.2075 33.5797 78.9008 32.882 78.2875 32.422C77.6742 31.962 76.7465 31.732 75.5045 31.732C74.2625 31.732 73.3348 31.962 72.7215 32.422C72.1082 32.882 71.8015 33.5797 71.8015 34.515C71.8015 35.4503 72.1082 36.1557 72.7215 36.631C73.3502 37.091 74.2778 37.321 75.5045 37.321ZM75.5045 29.846C76.5778 29.846 77.3905 29.6083 77.9425 29.133C78.5098 28.6423 78.7935 27.9753 78.7935 27.132C78.7935 26.304 78.5098 25.6523 77.9425 25.177C77.3905 24.7017 76.5778 24.464 75.5045 24.464C74.4465 24.464 73.6338 24.7017 73.0665 25.177C72.4992 25.6523 72.2155 26.304 72.2155 27.132C72.2155 27.9753 72.4992 28.6423 73.0665 29.133C73.6338 29.6083 74.4465 29.846 75.5045 29.846ZM84.6955 39L92.6535 23.889V24.809H83.7755V22.785H94.8155V24.556L87.3175 39H84.6955Z" fill="white"/>
</svg>
