<svg width="105" height="61" viewBox="0 0 105 61" fill="none" xmlns="http://www.w3.org/2000/svg">
<rect width="105" height="61" rx="6" fill="#9F97CA"/>
<path d="M20.1926 40.6079C19.3875 39.973 19.2495 38.8057 19.8844 38.0006L34.4147 19.5732C35.0496 18.7681 36.2169 18.6301 37.022 19.2649C37.8271 19.8998 37.9651 21.0671 37.3303 21.8722L22.7999 40.2996C22.165 41.1047 20.9977 41.2427 20.1926 40.6079Z" fill="white"/>
<rect x="12.4136" y="30.8693" width="13.7532" height="3.71815" rx="1.85908" transform="rotate(37.4376 12.4136 30.8693)" fill="white"/>
<rect x="12.4136" y="30.8693" width="13.7532" height="3.71815" rx="1.85908" transform="rotate(37.4376 12.4136 30.8693)" fill="white"/>
<rect x="12.4136" y="30.8693" width="13.7532" height="3.71815" rx="1.85908" transform="rotate(37.4376 12.4136 30.8693)" fill="white"/>
<rect x="12.4136" y="30.8693" width="13.7532" height="3.71815" rx="1.85908" transform="rotate(37.4376 12.4136 30.8693)" fill="white"/>
<path d="M56.5735 39V36.999H60.3455V24.809H61.5415L56.9415 27.615V25.315L61.0125 22.785H62.7375V36.999H66.2795V39H56.5735ZM74.7345 39.207C74.0292 39.207 73.3315 39.1303 72.6415 38.977C71.9515 38.8237 71.3075 38.609 70.7095 38.333C70.1115 38.0417 69.5902 37.6967 69.1455 37.298L69.9735 35.481C70.7095 36.0483 71.4608 36.4777 72.2275 36.769C73.0095 37.045 73.8298 37.183 74.6885 37.183C75.7772 37.183 76.6282 36.8993 77.2415 36.332C77.8702 35.7647 78.1845 35.0057 78.1845 34.055C78.1845 33.0737 77.8855 32.284 77.2875 31.686C76.7048 31.0727 75.8922 30.766 74.8495 30.766C74.1288 30.766 73.4695 30.9117 72.8715 31.203C72.2888 31.4943 71.7752 31.939 71.3305 32.537H69.6745V22.785H79.4955V24.786H71.9515V30.628H71.3535C71.7675 30.0453 72.3195 29.593 73.0095 29.271C73.7148 28.949 74.5045 28.788 75.3785 28.788C76.4212 28.788 77.3258 29.0027 78.0925 29.432C78.8592 29.8613 79.4495 30.4593 79.8635 31.226C80.2928 31.9927 80.5075 32.8973 80.5075 33.94C80.5075 34.9827 80.2698 35.9027 79.7945 36.7C79.3345 37.482 78.6675 38.0953 77.7935 38.54C76.9348 38.9847 75.9152 39.207 74.7345 39.207ZM83.3045 39V37.229L88.8705 31.41C89.5912 30.6587 90.1278 29.9533 90.4805 29.294C90.8332 28.6347 91.0095 27.9523 91.0095 27.247C91.0095 26.373 90.7335 25.7137 90.1815 25.269C89.6448 24.8243 88.8628 24.602 87.8355 24.602C87.0228 24.602 86.2562 24.7477 85.5355 25.039C84.8302 25.3303 84.1478 25.775 83.4885 26.373L82.6605 24.556C83.3045 23.958 84.1018 23.4827 85.0525 23.13C86.0185 22.762 87.0382 22.578 88.1115 22.578C89.7982 22.578 91.0938 22.9613 91.9985 23.728C92.9185 24.4947 93.3785 25.591 93.3785 27.017C93.3785 28.029 93.1332 29.0027 92.6425 29.938C92.1518 30.858 91.4158 31.8087 90.4345 32.79L85.6275 37.643V36.999H94.0455V39H83.3045Z" fill="white"/>
</svg>
