<svg width="897" height="124" viewBox="0 0 897 124" fill="none" xmlns="http://www.w3.org/2000/svg">
<path d="M32.4616 121.72H0V2.5918H37.1063L130.816 83.1069V2.5918H163.278V121.72H126.971L32.4616 39.7926V121.72Z" fill="#FF6711"/>
<path d="M271.177 89.5361C281.811 89.5361 291.457 89.183 300.134 88.5141C308.811 87.8266 316.399 86.9904 322.898 85.987C329.397 85.0021 334.756 84.1845 338.959 83.5713L346.938 114.752C340.354 116.443 332.63 117.966 323.749 119.341C314.868 120.716 305.561 121.776 295.83 122.556C286.098 123.318 276.69 123.708 267.604 123.708C247.324 123.708 230.736 121.571 217.857 117.297C204.978 113.024 195.502 106.334 189.428 97.2476C183.337 88.161 180.292 76.4359 180.292 62.0722C180.292 47.7084 183.541 35.7974 190.057 26.7667C196.556 17.7545 206.118 11.1394 218.708 6.93987C231.298 2.74037 246.763 0.640625 265.086 0.640625C277.813 0.640625 289.365 1.60688 299.709 3.50223C310.053 5.41616 318.951 8.42641 326.369 12.5516C333.787 16.6767 339.486 22.1026 343.467 28.8293C347.449 35.5559 349.456 43.6576 349.456 53.1343C349.456 54.9739 349.388 57.1851 349.252 59.7866C349.116 62.388 348.963 64.8037 348.827 67.0149C348.691 69.2262 348.537 70.8799 348.401 71.9391H201.694V49.4737H315.242L310.836 57.501C310.836 50.9416 309.645 45.5901 307.263 41.4463C304.881 37.3212 300.338 34.3109 293.618 32.397C286.898 30.483 276.894 29.5354 263.606 29.5354C251.85 29.5354 242.646 30.483 236.011 32.397C229.358 34.3109 224.748 37.4698 222.162 41.9109C219.576 46.3519 218.283 52.4468 218.283 60.2511C218.283 66.3646 219.048 71.3631 220.596 75.2653C222.128 79.1674 224.867 82.1405 228.78 84.2031C232.693 86.2657 238.086 87.6779 244.943 88.4398C251.799 89.2016 260.544 89.5918 271.177 89.5918V89.5361Z" fill="#FF6711"/>
<path d="M366.469 67.2378V1.53247H406.298V59.8423C406.298 65.7141 407.574 70.6383 410.109 74.652C412.644 78.6657 416.472 81.6388 421.542 83.5527C426.629 85.4852 432.907 86.4514 440.393 86.4514C448.576 86.4514 457.661 85.4852 467.614 83.5527C477.567 81.6202 488.302 78.9258 499.82 75.451C511.322 71.9762 523.435 67.851 536.144 63.0755V87.8265C529.934 91.3756 522.721 95.2221 514.537 99.403C506.354 103.565 497.524 107.393 488.064 110.849C478.605 114.324 468.754 117.167 458.512 119.416C448.27 121.645 437.858 122.779 427.258 122.779C414.26 122.779 403.218 120.884 394.099 117.111C384.997 113.339 378.106 107.356 373.445 99.18C368.783 91.004 366.452 80.3566 366.452 67.2564L366.469 67.2378ZM539.105 1.53247V119.527H504.159L499.293 91.3013V1.53247H539.122H539.105Z" fill="#FF6711"/>
<path d="M588.597 121.72H556.135V2.5918H665.361C672.082 2.5918 678.24 3.31649 683.838 4.76587C689.435 6.21525 694.25 8.5194 698.316 11.6597C702.366 14.8001 705.479 19.0553 707.674 24.4069C709.851 29.7584 710.957 36.3364 710.957 44.1408C710.957 52.8742 709.443 60.1583 706.398 65.9744C703.352 71.7905 698.98 76.2502 693.28 79.3348C687.581 82.4193 680.673 84.3147 672.575 85.0022L665.531 85.1694L674.174 90.9298L710.005 121.664H669.223L630.041 87.0834H588.614V121.664L588.597 121.72ZM588.597 32.9917V60.5857H662.163C667.607 60.5857 671.486 59.5451 673.834 57.4454C676.182 55.3456 677.356 51.8522 677.356 46.9652C677.356 41.6136 676.182 37.9344 673.834 35.9648C671.486 33.9765 667.59 32.9917 662.163 32.9917H588.597Z" fill="#FF6711"/>
<path d="M897 8.46382L879.833 41.781C873.334 40.8519 865.576 39.9786 856.525 39.1238C847.491 38.2877 838.099 37.5444 828.351 36.9312C818.602 36.318 809.347 36.0021 800.602 36.0021C791.857 36.0021 785.307 36.894 779.726 38.6593C774.146 40.4246 769.944 43.1747 767.119 46.8725C764.295 50.5702 762.883 55.513 762.883 61.6822C762.883 71.0846 765.282 77.7369 770.08 81.5833C774.878 85.4483 783.078 87.3623 794.647 87.3623C804.107 87.3623 814.247 86.2845 825.05 84.129C835.854 81.9735 847.117 78.9633 858.839 75.0983C870.561 71.2518 882.488 66.8479 894.635 61.9052V85.7456C888.289 89.7593 881.109 93.9588 873.13 98.3627C865.151 102.767 856.542 106.855 847.287 110.627C838.031 114.417 828.317 117.483 818.16 119.88C807.986 122.278 797.539 123.467 786.804 123.467C774.095 123.467 762.9 121.497 753.219 117.558C743.539 113.618 736.053 107.226 730.762 98.3441C725.47 89.4806 722.816 77.7926 722.816 63.2802C722.816 47.3928 726.236 34.9429 733.093 25.9122C739.949 16.8814 749.511 10.4521 761.794 6.58705C774.078 2.72203 788.352 0.808105 804.583 0.808105C823.23 0.808105 840.277 1.62571 855.742 3.24233C871.208 4.85894 884.938 6.60564 896.949 8.44524L897 8.46382ZM856.95 11.9386L897 8.70538V121.163H861.833L856.967 94.5534V11.9386H856.95Z" fill="#FF6711"/>
</svg>
