<?xml version="1.0" encoding="UTF-8"?>
<svg id="Camada_1" data-name="Camada 1" xmlns="http://www.w3.org/2000/svg" viewBox="0 0 100 100">
  <defs>
    <style>
      .cls-1 {
        fill: #fff;
      }

      .cls-1, .cls-2 {
        stroke-width: 0px;
      }

      .cls-2 {
        fill: #ff6711;
      }
    </style>
  </defs>
  <path class="cls-2" d="M99,50c0,27.06-21.94,49-49,49h0C22.94,99,1,77.06,1,50h0C1,22.94,22.94,1,50,1h0c27.06,0,49,21.94,49,49h0Z"/>
  <path class="cls-1" d="M59.71,62.63v-24.28s2.74,4.56,12.63,4.84c.53.01.96-.42.96-.95v-6.86c0-.51-.41-.92-.92-.94-7.68-.43-11.32-6.32-11.68-11.72-.03-.5-.47-.88-.97-.88h-7.82c-.52,0-.94.42-.94.94v38.6c0,4.19-3.2,7.84-7.39,8.04-4.79.23-8.68-3.88-8.09-8.74.42-3.43,3.17-6.24,6.59-6.71.68-.09,1.35-.1,1.99-.03.57.06,1.07-.36,1.07-.93v-6.88c0-.49-.37-.91-.86-.94-.98-.06-1.99-.04-3.01.07-7.55.86-13.64,6.96-14.48,14.52-1.1,9.96,6.67,18.39,16.41,18.39,9.12,0,16.51-7.39,16.51-16.51"/>
</svg>