<svg width="105" height="61" viewBox="0 0 105 61" fill="none" xmlns="http://www.w3.org/2000/svg">
<rect width="105" height="61" rx="6" fill="#9F97CA"/>
<path d="M20.1926 40.6079C19.3875 39.973 19.2495 38.8057 19.8844 38.0006L34.4147 19.5732C35.0496 18.7681 36.2169 18.6301 37.022 19.2649C37.8271 19.8998 37.9651 21.0671 37.3303 21.8722L22.7999 40.2996C22.165 41.1047 20.9977 41.2427 20.1926 40.6079Z" fill="white"/>
<rect x="12.4136" y="30.8693" width="13.7532" height="3.71815" rx="1.85908" transform="rotate(37.4376 12.4136 30.8693)" fill="white"/>
<rect x="12.4136" y="30.8693" width="13.7532" height="3.71815" rx="1.85908" transform="rotate(37.4376 12.4136 30.8693)" fill="white"/>
<rect x="12.4136" y="30.8693" width="13.7532" height="3.71815" rx="1.85908" transform="rotate(37.4376 12.4136 30.8693)" fill="white"/>
<rect x="12.4136" y="30.8693" width="13.7532" height="3.71815" rx="1.85908" transform="rotate(37.4376 12.4136 30.8693)" fill="white"/>
<path d="M56.1135 39L64.0715 23.889V24.809H55.1935V22.785H66.2335V24.556L58.7355 39H56.1135ZM76.1605 39V35.642H68.6625V33.94L76.5515 22.785H78.4835V33.779H80.8985V35.642H78.4835V39H76.1605ZM76.1605 33.779V25.614H76.6895L70.5255 34.354V33.779H76.1605ZM88.8475 39.207C86.8388 39.207 85.2902 38.5093 84.2015 37.114C83.1282 35.7187 82.5915 33.7637 82.5915 31.249C82.5915 29.3783 82.8675 27.8067 83.4195 26.534C83.9715 25.246 84.7535 24.2647 85.7655 23.59C86.7928 22.9153 88.0272 22.578 89.4685 22.578C90.3272 22.578 91.1858 22.7467 92.0445 23.084C92.9032 23.406 93.6238 23.866 94.2065 24.464L93.3555 26.258C92.7882 25.706 92.1672 25.292 91.4925 25.016C90.8178 24.74 90.1355 24.602 89.4455 24.602C87.9582 24.602 86.8235 25.1233 86.0415 26.166C85.2595 27.1933 84.8685 28.7343 84.8685 30.789V32.744H84.6385C84.7458 31.916 85.0065 31.203 85.4205 30.605C85.8345 29.9917 86.3712 29.524 87.0305 29.202C87.6898 28.88 88.4258 28.719 89.2385 28.719C90.2045 28.719 91.0555 28.9413 91.7915 29.386C92.5428 29.8307 93.1332 30.444 93.5625 31.226C93.9918 31.9927 94.2065 32.8743 94.2065 33.871C94.2065 34.8983 93.9765 35.8183 93.5165 36.631C93.0565 37.4437 92.4202 38.08 91.6075 38.54C90.8102 38.9847 89.8902 39.207 88.8475 39.207ZM88.7095 37.275C89.3535 37.275 89.9132 37.137 90.3885 36.861C90.8792 36.585 91.2625 36.2017 91.5385 35.711C91.8145 35.205 91.9525 34.6223 91.9525 33.963C91.9525 33.3037 91.8145 32.7287 91.5385 32.238C91.2625 31.7473 90.8792 31.364 90.3885 31.088C89.9132 30.7967 89.3535 30.651 88.7095 30.651C88.0655 30.651 87.4982 30.7967 87.0075 31.088C86.5168 31.364 86.1335 31.7473 85.8575 32.238C85.5815 32.7287 85.4435 33.3037 85.4435 33.963C85.4435 34.6223 85.5815 35.205 85.8575 35.711C86.1335 36.2017 86.5168 36.585 87.0075 36.861C87.4982 37.137 88.0655 37.275 88.7095 37.275Z" fill="white"/>
</svg>
