<svg width="105" height="61" viewBox="0 0 105 61" fill="none" xmlns="http://www.w3.org/2000/svg">
<rect width="105" height="61" rx="6" fill="#9F97CA"/>
<path d="M32 43.3141V20.5C32 19.6716 31.3284 19 30.5 19H14.5C13.6716 19 13 19.6716 13 20.5V43.3141C13 44.6594 14.6343 45.3245 15.5738 44.3615L21.4262 38.3617C22.0149 37.7582 22.9851 37.7582 23.5738 38.3617L29.4262 44.3615C30.3657 45.3245 32 44.6594 32 43.3141Z" stroke="white" stroke-width="3"/>
<path d="M61.5525 39.207C60.4485 39.207 59.3905 39.046 58.3785 38.724C57.3665 38.3867 56.5231 37.9113 55.8485 37.298L56.6765 35.481C57.4278 36.0637 58.1945 36.493 58.9765 36.769C59.7585 37.045 60.5941 37.183 61.4835 37.183C62.6181 37.183 63.4768 36.9453 64.0595 36.47C64.6575 35.9947 64.9565 35.3123 64.9565 34.423C64.9565 33.549 64.6575 32.8897 64.0595 32.445C63.4768 31.985 62.6105 31.755 61.4605 31.755H58.9535V29.823H61.2765C62.2578 29.823 63.0398 29.5777 63.6225 29.087C64.2051 28.581 64.4965 27.8987 64.4965 27.04C64.4965 26.258 64.2281 25.66 63.6915 25.246C63.1548 24.8167 62.3881 24.602 61.3915 24.602C59.7048 24.602 58.2251 25.1923 56.9525 26.373L56.1475 24.556C56.7761 23.9273 57.5735 23.4443 58.5395 23.107C59.5055 22.7543 60.5175 22.578 61.5755 22.578C63.2008 22.578 64.4811 22.9537 65.4165 23.705C66.3518 24.441 66.8195 25.4683 66.8195 26.787C66.8195 27.7837 66.5358 28.6347 65.9685 29.34C65.4165 30.0453 64.6575 30.513 63.6915 30.743V30.49C64.8415 30.674 65.7231 31.134 66.3365 31.87C66.9651 32.5907 67.2795 33.4953 67.2795 34.584C67.2795 36.0253 66.7658 37.16 65.7385 37.988C64.7265 38.8007 63.3311 39.207 61.5525 39.207ZM75.5045 39.207C73.6338 39.207 72.1772 38.8083 71.1345 38.011C70.0918 37.2137 69.5705 36.102 69.5705 34.676C69.5705 33.5413 69.9155 32.606 70.6055 31.87C71.2955 31.1187 72.2002 30.6663 73.3195 30.513V30.927C72.3075 30.7123 71.4948 30.2447 70.8815 29.524C70.2835 28.8033 69.9845 27.9293 69.9845 26.902C69.9845 25.5527 70.4752 24.4947 71.4565 23.728C72.4378 22.9613 73.7872 22.578 75.5045 22.578C77.2372 22.578 78.5942 22.9613 79.5755 23.728C80.5568 24.4947 81.0475 25.5527 81.0475 26.902C81.0475 27.9293 80.7562 28.811 80.1735 29.547C79.6062 30.2677 78.8242 30.72 77.8275 30.904V30.513C78.9315 30.6663 79.8132 31.1187 80.4725 31.87C81.1318 32.606 81.4615 33.5413 81.4615 34.676C81.4615 36.102 80.9402 37.2137 79.8975 38.011C78.8548 38.8083 77.3905 39.207 75.5045 39.207ZM75.5045 37.321C76.7465 37.321 77.6742 37.091 78.2875 36.631C78.9008 36.1557 79.2075 35.4503 79.2075 34.515C79.2075 33.5797 78.9008 32.882 78.2875 32.422C77.6742 31.962 76.7465 31.732 75.5045 31.732C74.2625 31.732 73.3348 31.962 72.7215 32.422C72.1082 32.882 71.8015 33.5797 71.8015 34.515C71.8015 35.4503 72.1082 36.1557 72.7215 36.631C73.3502 37.091 74.2778 37.321 75.5045 37.321ZM75.5045 29.846C76.5778 29.846 77.3905 29.6083 77.9425 29.133C78.5098 28.6423 78.7935 27.9753 78.7935 27.132C78.7935 26.304 78.5098 25.6523 77.9425 25.177C77.3905 24.7017 76.5778 24.464 75.5045 24.464C74.4465 24.464 73.6338 24.7017 73.0665 25.177C72.4992 25.6523 72.2155 26.304 72.2155 27.132C72.2155 27.9753 72.4992 28.6423 73.0665 29.133C73.6338 29.6083 74.4465 29.846 75.5045 29.846ZM89.5255 39.207C88.8202 39.207 88.1225 39.1303 87.4325 38.977C86.7425 38.8237 86.0985 38.609 85.5005 38.333C84.9025 38.0417 84.3812 37.6967 83.9365 37.298L84.7645 35.481C85.5005 36.0483 86.2518 36.4777 87.0185 36.769C87.8005 37.045 88.6208 37.183 89.4795 37.183C90.5682 37.183 91.4192 36.8993 92.0325 36.332C92.6612 35.7647 92.9755 35.0057 92.9755 34.055C92.9755 33.0737 92.6765 32.284 92.0785 31.686C91.4958 31.0727 90.6832 30.766 89.6405 30.766C88.9198 30.766 88.2605 30.9117 87.6625 31.203C87.0798 31.4943 86.5662 31.939 86.1215 32.537H84.4655V22.785H94.2865V24.786H86.7425V30.628H86.1445C86.5585 30.0453 87.1105 29.593 87.8005 29.271C88.5058 28.949 89.2955 28.788 90.1695 28.788C91.2122 28.788 92.1168 29.0027 92.8835 29.432C93.6502 29.8613 94.2405 30.4593 94.6545 31.226C95.0838 31.9927 95.2985 32.8973 95.2985 33.94C95.2985 34.9827 95.0608 35.9027 94.5855 36.7C94.1255 37.482 93.4585 38.0953 92.5845 38.54C91.7258 38.9847 90.7062 39.207 89.5255 39.207Z" fill="white"/>
</svg>
