<svg width="105" height="61" viewBox="0 0 105 61" fill="none" xmlns="http://www.w3.org/2000/svg">
<rect width="105" height="61" rx="6" fill="#9F97CA"/>
<path d="M32 43.3141V20.5C32 19.6716 31.3284 19 30.5 19H14.5C13.6716 19 13 19.6716 13 20.5V43.3141C13 44.6594 14.6343 45.3245 15.5738 44.3615L21.4262 38.3617C22.0149 37.7582 22.9851 37.7582 23.5738 38.3617L29.4262 44.3615C30.3657 45.3245 32 44.6594 32 43.3141Z" stroke="white" stroke-width="3"/>
<path d="M61.7135 39.207C59.8428 39.207 58.3861 38.8083 57.3435 38.011C56.3008 37.2137 55.7795 36.102 55.7795 34.676C55.7795 33.5413 56.1245 32.606 56.8145 31.87C57.5045 31.1187 58.4091 30.6663 59.5285 30.513V30.927C58.5165 30.7123 57.7038 30.2447 57.0905 29.524C56.4925 28.8033 56.1935 27.9293 56.1935 26.902C56.1935 25.5527 56.6841 24.4947 57.6655 23.728C58.6468 22.9613 59.9961 22.578 61.7135 22.578C63.4461 22.578 64.8031 22.9613 65.7845 23.728C66.7658 24.4947 67.2565 25.5527 67.2565 26.902C67.2565 27.9293 66.9651 28.811 66.3825 29.547C65.8151 30.2677 65.0331 30.72 64.0365 30.904V30.513C65.1405 30.6663 66.0221 31.1187 66.6815 31.87C67.3408 32.606 67.6705 33.5413 67.6705 34.676C67.6705 36.102 67.1491 37.2137 66.1065 38.011C65.0638 38.8083 63.5995 39.207 61.7135 39.207ZM61.7135 37.321C62.9555 37.321 63.8831 37.091 64.4965 36.631C65.1098 36.1557 65.4165 35.4503 65.4165 34.515C65.4165 33.5797 65.1098 32.882 64.4965 32.422C63.8831 31.962 62.9555 31.732 61.7135 31.732C60.4715 31.732 59.5438 31.962 58.9305 32.422C58.3171 32.882 58.0105 33.5797 58.0105 34.515C58.0105 35.4503 58.3171 36.1557 58.9305 36.631C59.5591 37.091 60.4868 37.321 61.7135 37.321ZM61.7135 29.846C62.7868 29.846 63.5995 29.6083 64.1515 29.133C64.7188 28.6423 65.0025 27.9753 65.0025 27.132C65.0025 26.304 64.7188 25.6523 64.1515 25.177C63.5995 24.7017 62.7868 24.464 61.7135 24.464C60.6555 24.464 59.8428 24.7017 59.2755 25.177C58.7081 25.6523 58.4245 26.304 58.4245 27.132C58.4245 27.9753 58.7081 28.6423 59.2755 29.133C59.8428 29.6083 60.6555 29.846 61.7135 29.846ZM74.3545 39.207C73.4958 39.207 72.6372 39.0383 71.7785 38.701C70.9198 38.3483 70.1992 37.8883 69.6165 37.321L70.4675 35.504C71.0348 36.056 71.6558 36.4777 72.3305 36.769C73.0052 37.045 73.6875 37.183 74.3775 37.183C75.8495 37.183 76.9765 36.6693 77.7585 35.642C78.5558 34.5993 78.9545 33.0507 78.9545 30.996V29.041H79.1845C79.0925 29.8537 78.8318 30.5667 78.4025 31.18C77.9732 31.7933 77.4288 32.261 76.7695 32.583C76.1255 32.905 75.3972 33.066 74.5845 33.066C73.6338 33.066 72.7752 32.8437 72.0085 32.399C71.2572 31.9543 70.6668 31.341 70.2375 30.559C69.8235 29.777 69.6165 28.8953 69.6165 27.914C69.6165 26.8713 69.8465 25.9513 70.3065 25.154C70.7665 24.3413 71.3952 23.7127 72.1925 23.268C72.9898 22.808 73.9098 22.578 74.9525 22.578C76.9765 22.578 78.5252 23.2757 79.5985 24.671C80.6872 26.051 81.2315 28.006 81.2315 30.536C81.2315 32.3913 80.9555 33.963 80.4035 35.251C79.8668 36.539 79.0848 37.5203 78.0575 38.195C77.0302 38.8697 75.7958 39.207 74.3545 39.207ZM75.1135 31.111C75.7575 31.111 76.3248 30.973 76.8155 30.697C77.3062 30.421 77.6895 30.0377 77.9655 29.547C78.2415 29.041 78.3795 28.466 78.3795 27.822C78.3795 27.1627 78.2415 26.5877 77.9655 26.097C77.6895 25.591 77.3062 25.2 76.8155 24.924C76.3248 24.6327 75.7575 24.487 75.1135 24.487C74.4695 24.487 73.9022 24.6327 73.4115 24.924C72.9362 25.2 72.5605 25.591 72.2845 26.097C72.0085 26.5877 71.8705 27.1627 71.8705 27.822C71.8705 28.466 72.0085 29.041 72.2845 29.547C72.5605 30.0377 72.9362 30.421 73.4115 30.697C73.9022 30.973 74.4695 31.111 75.1135 31.111ZM89.5255 39.207C88.8202 39.207 88.1225 39.1303 87.4325 38.977C86.7425 38.8237 86.0985 38.609 85.5005 38.333C84.9025 38.0417 84.3812 37.6967 83.9365 37.298L84.7645 35.481C85.5005 36.0483 86.2518 36.4777 87.0185 36.769C87.8005 37.045 88.6208 37.183 89.4795 37.183C90.5682 37.183 91.4192 36.8993 92.0325 36.332C92.6612 35.7647 92.9755 35.0057 92.9755 34.055C92.9755 33.0737 92.6765 32.284 92.0785 31.686C91.4958 31.0727 90.6832 30.766 89.6405 30.766C88.9198 30.766 88.2605 30.9117 87.6625 31.203C87.0798 31.4943 86.5662 31.939 86.1215 32.537H84.4655V22.785H94.2865V24.786H86.7425V30.628H86.1445C86.5585 30.0453 87.1105 29.593 87.8005 29.271C88.5058 28.949 89.2955 28.788 90.1695 28.788C91.2122 28.788 92.1168 29.0027 92.8835 29.432C93.6502 29.8613 94.2405 30.4593 94.6545 31.226C95.0838 31.9927 95.2985 32.8973 95.2985 33.94C95.2985 34.9827 95.0608 35.9027 94.5855 36.7C94.1255 37.482 93.4585 38.0953 92.5845 38.54C91.7258 38.9847 90.7062 39.207 89.5255 39.207Z" fill="white"/>
</svg>
