<svg width="105" height="61" viewBox="0 0 105 61" fill="none" xmlns="http://www.w3.org/2000/svg">
<rect width="105" height="61" rx="6" fill="#9F97CA"/>
<path d="M20.1926 40.6079C19.3875 39.973 19.2495 38.8057 19.8844 38.0006L34.4147 19.5732C35.0496 18.7681 36.2169 18.6301 37.022 19.2649C37.8271 19.8998 37.9651 21.0671 37.3303 21.8722L22.7999 40.2996C22.165 41.1047 20.9977 41.2427 20.1926 40.6079Z" fill="white"/>
<rect x="12.4136" y="30.8693" width="13.7532" height="3.71815" rx="1.85908" transform="rotate(37.4376 12.4136 30.8693)" fill="white"/>
<rect x="12.4136" y="30.8693" width="13.7532" height="3.71815" rx="1.85908" transform="rotate(37.4376 12.4136 30.8693)" fill="white"/>
<rect x="12.4136" y="30.8693" width="13.7532" height="3.71815" rx="1.85908" transform="rotate(37.4376 12.4136 30.8693)" fill="white"/>
<rect x="12.4136" y="30.8693" width="13.7532" height="3.71815" rx="1.85908" transform="rotate(37.4376 12.4136 30.8693)" fill="white"/>
<path d="M60.9435 39.207C60.2381 39.207 59.5405 39.1303 58.8505 38.977C58.1605 38.8237 57.5165 38.609 56.9185 38.333C56.3205 38.0417 55.7991 37.6967 55.3545 37.298L56.1825 35.481C56.9185 36.0483 57.6698 36.4777 58.4365 36.769C59.2185 37.045 60.0388 37.183 60.8975 37.183C61.9861 37.183 62.8371 36.8993 63.4505 36.332C64.0791 35.7647 64.3935 35.0057 64.3935 34.055C64.3935 33.0737 64.0945 32.284 63.4965 31.686C62.9138 31.0727 62.1011 30.766 61.0585 30.766C60.3378 30.766 59.6785 30.9117 59.0805 31.203C58.4978 31.4943 57.9841 31.939 57.5395 32.537H55.8835V22.785H65.7045V24.786H58.1605V30.628H57.5625C57.9765 30.0453 58.5285 29.593 59.2185 29.271C59.9238 28.949 60.7135 28.788 61.5875 28.788C62.6301 28.788 63.5348 29.0027 64.3015 29.432C65.0681 29.8613 65.6585 30.4593 66.0725 31.226C66.5018 31.9927 66.7165 32.8973 66.7165 33.94C66.7165 34.9827 66.4788 35.9027 66.0035 36.7C65.5435 37.482 64.8765 38.0953 64.0025 38.54C63.1438 38.9847 62.1241 39.207 60.9435 39.207ZM74.5045 39.207C72.6338 39.207 71.1925 38.494 70.1805 37.068C69.1838 35.6267 68.6855 33.5643 68.6855 30.881C68.6855 28.1517 69.1838 26.0893 70.1805 24.694C71.1925 23.2833 72.6338 22.578 74.5045 22.578C76.3905 22.578 77.8318 23.2833 78.8285 24.694C79.8252 26.0893 80.3235 28.144 80.3235 30.858C80.3235 33.5567 79.8175 35.6267 78.8055 37.068C77.8088 38.494 76.3752 39.207 74.5045 39.207ZM74.5045 37.206C75.6852 37.206 76.5592 36.6923 77.1265 35.665C77.7092 34.6377 78.0005 33.0353 78.0005 30.858C78.0005 28.6653 77.7092 27.0707 77.1265 26.074C76.5592 25.062 75.6852 24.556 74.5045 24.556C73.3392 24.556 72.4652 25.062 71.8825 26.074C71.2998 27.0707 71.0085 28.6577 71.0085 30.835C71.0085 33.0277 71.2998 34.6377 71.8825 35.665C72.4805 36.6923 73.3545 37.206 74.5045 37.206ZM88.5255 39.207C87.8202 39.207 87.1225 39.1303 86.4325 38.977C85.7425 38.8237 85.0985 38.609 84.5005 38.333C83.9025 38.0417 83.3812 37.6967 82.9365 37.298L83.7645 35.481C84.5005 36.0483 85.2518 36.4777 86.0185 36.769C86.8005 37.045 87.6208 37.183 88.4795 37.183C89.5682 37.183 90.4192 36.8993 91.0325 36.332C91.6612 35.7647 91.9755 35.0057 91.9755 34.055C91.9755 33.0737 91.6765 32.284 91.0785 31.686C90.4958 31.0727 89.6832 30.766 88.6405 30.766C87.9198 30.766 87.2605 30.9117 86.6625 31.203C86.0798 31.4943 85.5662 31.939 85.1215 32.537H83.4655V22.785H93.2865V24.786H85.7425V30.628H85.1445C85.5585 30.0453 86.1105 29.593 86.8005 29.271C87.5058 28.949 88.2955 28.788 89.1695 28.788C90.2122 28.788 91.1168 29.0027 91.8835 29.432C92.6502 29.8613 93.2405 30.4593 93.6545 31.226C94.0838 31.9927 94.2985 32.8973 94.2985 33.94C94.2985 34.9827 94.0608 35.9027 93.5855 36.7C93.1255 37.482 92.4585 38.0953 91.5845 38.54C90.7258 38.9847 89.7062 39.207 88.5255 39.207Z" fill="white"/>
</svg>
