<svg width="105" height="61" viewBox="0 0 105 61" fill="none" xmlns="http://www.w3.org/2000/svg">
<rect width="105" height="61" rx="6" fill="#9F97CA"/>
<path d="M32 43.3141V20.5C32 19.6716 31.3284 19 30.5 19H14.5C13.6716 19 13 19.6716 13 20.5V43.3141C13 44.6594 14.6343 45.3245 15.5738 44.3615L21.4262 38.3617C22.0149 37.7582 22.9851 37.7582 23.5738 38.3617L29.4262 44.3615C30.3657 45.3245 32 44.6594 32 43.3141Z" stroke="white" stroke-width="3"/>
<path d="M60.5635 39.207C59.7048 39.207 58.8461 39.0383 57.9875 38.701C57.1288 38.3483 56.4081 37.8883 55.8255 37.321L56.6765 35.504C57.2438 36.056 57.8648 36.4777 58.5395 36.769C59.2141 37.045 59.8965 37.183 60.5865 37.183C62.0585 37.183 63.1855 36.6693 63.9675 35.642C64.7648 34.5993 65.1635 33.0507 65.1635 30.996V29.041H65.3935C65.3015 29.8537 65.0408 30.5667 64.6115 31.18C64.1821 31.7933 63.6378 32.261 62.9785 32.583C62.3345 32.905 61.6061 33.066 60.7935 33.066C59.8428 33.066 58.9841 32.8437 58.2175 32.399C57.4661 31.9543 56.8758 31.341 56.4465 30.559C56.0325 29.777 55.8255 28.8953 55.8255 27.914C55.8255 26.8713 56.0555 25.9513 56.5155 25.154C56.9755 24.3413 57.6041 23.7127 58.4015 23.268C59.1988 22.808 60.1188 22.578 61.1615 22.578C63.1855 22.578 64.7341 23.2757 65.8075 24.671C66.8961 26.051 67.4405 28.006 67.4405 30.536C67.4405 32.3913 67.1645 33.963 66.6125 35.251C66.0758 36.539 65.2938 37.5203 64.2665 38.195C63.2391 38.8697 62.0048 39.207 60.5635 39.207ZM61.3225 31.111C61.9665 31.111 62.5338 30.973 63.0245 30.697C63.5151 30.421 63.8985 30.0377 64.1745 29.547C64.4505 29.041 64.5885 28.466 64.5885 27.822C64.5885 27.1627 64.4505 26.5877 64.1745 26.097C63.8985 25.591 63.5151 25.2 63.0245 24.924C62.5338 24.6327 61.9665 24.487 61.3225 24.487C60.6785 24.487 60.1111 24.6327 59.6205 24.924C59.1451 25.2 58.7695 25.591 58.4935 26.097C58.2175 26.5877 58.0795 27.1627 58.0795 27.822C58.0795 28.466 58.2175 29.041 58.4935 29.547C58.7695 30.0377 59.1451 30.421 59.6205 30.697C60.1111 30.973 60.6785 31.111 61.3225 31.111ZM75.5045 39.207C73.6338 39.207 72.1925 38.494 71.1805 37.068C70.1838 35.6267 69.6855 33.5643 69.6855 30.881C69.6855 28.1517 70.1838 26.0893 71.1805 24.694C72.1925 23.2833 73.6338 22.578 75.5045 22.578C77.3905 22.578 78.8318 23.2833 79.8285 24.694C80.8252 26.0893 81.3235 28.144 81.3235 30.858C81.3235 33.5567 80.8175 35.6267 79.8055 37.068C78.8088 38.494 77.3752 39.207 75.5045 39.207ZM75.5045 37.206C76.6852 37.206 77.5592 36.6923 78.1265 35.665C78.7092 34.6377 79.0005 33.0353 79.0005 30.858C79.0005 28.6653 78.7092 27.0707 78.1265 26.074C77.5592 25.062 76.6852 24.556 75.5045 24.556C74.3392 24.556 73.4652 25.062 72.8825 26.074C72.2998 27.0707 72.0085 28.6577 72.0085 30.835C72.0085 33.0277 72.2998 34.6377 72.8825 35.665C73.4805 36.6923 74.3545 37.206 75.5045 37.206ZM89.2955 39.207C87.4248 39.207 85.9835 38.494 84.9715 37.068C83.9748 35.6267 83.4765 33.5643 83.4765 30.881C83.4765 28.1517 83.9748 26.0893 84.9715 24.694C85.9835 23.2833 87.4248 22.578 89.2955 22.578C91.1815 22.578 92.6228 23.2833 93.6195 24.694C94.6162 26.0893 95.1145 28.144 95.1145 30.858C95.1145 33.5567 94.6085 35.6267 93.5965 37.068C92.5998 38.494 91.1662 39.207 89.2955 39.207ZM89.2955 37.206C90.4762 37.206 91.3502 36.6923 91.9175 35.665C92.5002 34.6377 92.7915 33.0353 92.7915 30.858C92.7915 28.6653 92.5002 27.0707 91.9175 26.074C91.3502 25.062 90.4762 24.556 89.2955 24.556C88.1302 24.556 87.2562 25.062 86.6735 26.074C86.0908 27.0707 85.7995 28.6577 85.7995 30.835C85.7995 33.0277 86.0908 34.6377 86.6735 35.665C87.2715 36.6923 88.1455 37.206 89.2955 37.206Z" fill="white"/>
</svg>
