<svg width="105" height="61" viewBox="0 0 105 61" fill="none" xmlns="http://www.w3.org/2000/svg">
<rect width="105" height="61" rx="6" fill="#9F97CA"/>
<path d="M20.1926 40.6079C19.3875 39.973 19.2495 38.8057 19.8844 38.0006L34.4147 19.5732C35.0496 18.7681 36.2169 18.6301 37.022 19.2649C37.8271 19.8998 37.9651 21.0671 37.3303 21.8722L22.7999 40.2996C22.165 41.1047 20.9977 41.2427 20.1926 40.6079Z" fill="white"/>
<rect x="12.4136" y="30.8693" width="13.7532" height="3.71815" rx="1.85908" transform="rotate(37.4376 12.4136 30.8693)" fill="white"/>
<rect x="12.4136" y="30.8693" width="13.7532" height="3.71815" rx="1.85908" transform="rotate(37.4376 12.4136 30.8693)" fill="white"/>
<rect x="12.4136" y="30.8693" width="13.7532" height="3.71815" rx="1.85908" transform="rotate(37.4376 12.4136 30.8693)" fill="white"/>
<rect x="12.4136" y="30.8693" width="13.7532" height="3.71815" rx="1.85908" transform="rotate(37.4376 12.4136 30.8693)" fill="white"/>
<path d="M62.3695 39V35.642H54.8715V33.94L62.7605 22.785H64.6925V33.779H67.1075V35.642H64.6925V39H62.3695ZM62.3695 33.779V25.614H62.8985L56.7345 34.354V33.779H62.3695ZM75.0565 39.207C73.0478 39.207 71.4992 38.5093 70.4105 37.114C69.3372 35.7187 68.8005 33.7637 68.8005 31.249C68.8005 29.3783 69.0765 27.8067 69.6285 26.534C70.1805 25.246 70.9625 24.2647 71.9745 23.59C73.0018 22.9153 74.2362 22.578 75.6775 22.578C76.5362 22.578 77.3948 22.7467 78.2535 23.084C79.1122 23.406 79.8328 23.866 80.4155 24.464L79.5645 26.258C78.9972 25.706 78.3762 25.292 77.7015 25.016C77.0268 24.74 76.3445 24.602 75.6545 24.602C74.1672 24.602 73.0325 25.1233 72.2505 26.166C71.4685 27.1933 71.0775 28.7343 71.0775 30.789V32.744H70.8475C70.9548 31.916 71.2155 31.203 71.6295 30.605C72.0435 29.9917 72.5802 29.524 73.2395 29.202C73.8988 28.88 74.6348 28.719 75.4475 28.719C76.4135 28.719 77.2645 28.9413 78.0005 29.386C78.7518 29.8307 79.3422 30.444 79.7715 31.226C80.2008 31.9927 80.4155 32.8743 80.4155 33.871C80.4155 34.8983 80.1855 35.8183 79.7255 36.631C79.2655 37.4437 78.6292 38.08 77.8165 38.54C77.0192 38.9847 76.0992 39.207 75.0565 39.207ZM74.9185 37.275C75.5625 37.275 76.1222 37.137 76.5975 36.861C77.0882 36.585 77.4715 36.2017 77.7475 35.711C78.0235 35.205 78.1615 34.6223 78.1615 33.963C78.1615 33.3037 78.0235 32.7287 77.7475 32.238C77.4715 31.7473 77.0882 31.364 76.5975 31.088C76.1222 30.7967 75.5625 30.651 74.9185 30.651C74.2745 30.651 73.7072 30.7967 73.2165 31.088C72.7258 31.364 72.3425 31.7473 72.0665 32.238C71.7905 32.7287 71.6525 33.3037 71.6525 33.963C71.6525 34.6223 71.7905 35.205 72.0665 35.711C72.3425 36.2017 72.7258 36.585 73.2165 36.861C73.7072 37.137 74.2745 37.275 74.9185 37.275ZM83.6955 39L91.6535 23.889V24.809H82.7755V22.785H93.8155V24.556L86.3175 39H83.6955Z" fill="white"/>
</svg>
