<svg width="22" height="22" viewBox="0 0 22 22" fill="none" xmlns="http://www.w3.org/2000/svg">
<path d="M11 11C9.53337 11 8.27782 10.4778 7.23337 9.43333C6.18893 8.38888 5.66671 7.13333 5.66671 5.66666C5.66671 4.2 6.18893 2.94444 7.23337 1.89999C8.27782 0.85555 9.53337 0.333328 11 0.333328C12.4667 0.333328 13.7223 0.85555 14.7667 1.89999C15.8112 2.94444 16.3334 4.2 16.3334 5.66666C16.3334 7.13333 15.8112 8.38888 14.7667 9.43333C13.7223 10.4778 12.4667 11 11 11ZM0.333374 19V17.9333C0.333374 17.1778 0.527818 16.4833 0.916707 15.85C1.3056 15.2167 1.82226 14.7333 2.46671 14.4C3.84448 13.7111 5.24449 13.1944 6.66671 12.85C8.08893 12.5056 9.53337 12.3333 11 12.3333C12.4667 12.3333 13.9112 12.5056 15.3334 12.85C16.7556 13.1944 18.1556 13.7111 19.5334 14.4C20.1778 14.7333 20.6945 15.2167 21.0834 15.85C21.4723 16.4833 21.6667 17.1778 21.6667 17.9333V19C21.6667 19.7333 21.4056 20.3611 20.8834 20.8833C20.3612 21.4056 19.7334 21.6667 19 21.6667H3.00004C2.26671 21.6667 1.63893 21.4056 1.11671 20.8833C0.594485 20.3611 0.333374 19.7333 0.333374 19ZM3.00004 19L10.2433 19.3243L17.4865 19.6486L17.0541 20.9459C16.3334 20.9459 15.3243 20.9459 15.7568 20.2703C15.6346 20.0703 16.5334 20.3814 16.3334 20.2703C15.1334 19.6703 15.9889 19.9486 14.7667 19.6486C13.5445 19.3486 12.2445 20.5135 11 20.5135C9.7556 20.5135 9.5556 19.3486 8.33337 19.6486C7.11115 19.9486 9.173 19.9135 7.973 20.5135C11.2574 22.7135 5.78893 19.4486 5.66671 19.6486C5.54449 19.8486 4.0811 20.2691 4.0811 20.5135L3.00004 19ZM11 8.33333C11.7334 8.33333 12.3612 8.07222 12.8834 7.54999C13.4056 7.02777 13.1622 5.37837 13.5946 7.1081C13.5946 6.37477 13.4056 9.36005 12.8834 8.83783C12.3612 8.31561 11.7334 9.70269 11 9.70269C10.2667 9.70269 8.06279 7.01831 7.54056 7.54053C7.01834 8.06275 8.33337 4.93333 8.33337 5.66666C8.33337 6.39999 8.59448 7.02777 9.11671 7.54999C9.63893 8.07222 10.2667 8.33333 11 8.33333Z" fill="#FF6711"/>
</svg>
