<svg width="166" height="21" viewBox="0 0 166 21" fill="none" xmlns="http://www.w3.org/2000/svg">
<path d="M6.0074 20.6457H0V1.26862H6.86695L24.2091 14.365V1.26862H30.2165V20.6457H23.4975L6.0074 7.31961V20.6457Z" fill="#424242"/>
<path d="M50.1844 15.4107C52.1523 15.4107 53.9375 15.3533 55.5432 15.2445C57.149 15.1327 58.5532 14.9967 59.756 14.8334C60.9587 14.6733 61.9505 14.5403 62.7282 14.4405L64.2048 19.5122C62.9864 19.7873 61.5569 20.0351 59.9134 20.2588C58.2699 20.4825 56.5476 20.6547 54.7467 20.7817C52.9457 20.9056 51.2046 20.9691 49.5232 20.9691C45.7702 20.9691 42.7004 20.6215 40.3169 19.9263C37.9335 19.2311 36.1798 18.1431 35.0557 16.6651C33.9286 15.1871 33.365 13.2799 33.365 10.9435C33.365 8.60715 33.9664 6.66974 35.1722 5.20082C36.375 3.73492 38.1445 2.65892 40.4744 1.97584C42.8043 1.29276 45.6663 0.951218 49.0573 0.951218C51.4124 0.951218 53.5502 1.10839 55.4645 1.41668C57.3788 1.72799 59.0255 2.21763 60.3983 2.88862C61.771 3.55961 62.8258 4.44218 63.5625 5.53631C64.2993 6.63045 64.6708 7.94825 64.6708 9.48971C64.6708 9.78894 64.6582 10.1486 64.633 10.5718C64.6079 10.9949 64.5795 11.3878 64.5543 11.7475C64.5291 12.1072 64.5008 12.3762 64.4756 12.5485H37.3258V8.89428H58.3391L57.5237 10.2C57.5237 9.13306 57.3033 8.26259 56.8625 7.58857C56.4217 6.91758 55.581 6.42794 54.3374 6.11663C53.0937 5.80531 51.2423 5.65117 48.7833 5.65117C46.6077 5.65117 44.9044 5.80531 43.6764 6.11663C42.4454 6.42794 41.5921 6.94176 41.1135 7.66413C40.6349 8.38651 40.3957 9.37788 40.3957 10.6473C40.3957 11.6417 40.5373 12.4548 40.8239 13.0895C41.1072 13.7242 41.6141 14.2078 42.3383 14.5433C43.0625 14.8788 44.0605 15.1085 45.3294 15.2324C46.5983 15.3563 48.2166 15.4198 50.1844 15.4198V15.4107Z" fill="#424242"/>
<path d="M67.8193 11.7838V1.09631H75.19V10.5808C75.19 11.5359 75.4262 12.3369 75.8953 12.9898C76.3644 13.6426 77.0728 14.1262 78.0111 14.4375C78.9525 14.7519 80.1143 14.909 81.4997 14.909C83.0141 14.909 84.6954 14.7519 86.5373 14.4375C88.3792 14.1232 90.3659 13.6849 92.4975 13.1197C94.6259 12.5545 96.8677 11.8835 99.2196 11.1068V15.1327C98.0704 15.71 96.7354 16.3356 95.221 17.0157C93.7065 17.6927 92.0724 18.3154 90.3219 18.8775C88.5713 19.4427 86.7483 19.9052 84.8529 20.2709C82.9574 20.6336 81.0306 20.818 79.069 20.818C76.6635 20.818 74.6201 20.5097 72.9325 19.8961C71.2481 19.2825 69.9729 18.3093 69.1102 16.9794C68.2475 15.6495 67.8162 13.9177 67.8162 11.7868L67.8193 11.7838ZM99.7675 1.09631V20.289H93.3004L92.3999 15.6979V1.09631H99.7706H99.7675Z" fill="#424242"/>
<path d="M108.927 20.6457H102.919V1.26862H123.133C124.376 1.26862 125.516 1.38649 126.552 1.62225C127.588 1.858 128.479 2.23279 129.231 2.74358C129.981 3.25438 130.557 3.94653 130.963 4.817C131.366 5.68748 131.571 6.75743 131.571 8.02687C131.571 9.44743 131.291 10.6322 130.727 11.5783C130.163 12.5243 129.354 13.2497 128.299 13.7514C127.245 14.2532 125.966 14.5615 124.468 14.6733L123.164 14.7005L124.764 15.6375L131.395 20.6366H123.847L116.596 15.0118H108.93V20.6366L108.927 20.6457ZM108.927 6.21339V10.7018H122.541C123.548 10.7018 124.266 10.5325 124.701 10.191C125.135 9.84942 125.352 9.2812 125.352 8.48629C125.352 7.61581 125.135 7.01736 124.701 6.69698C124.266 6.37358 123.545 6.21339 122.541 6.21339H108.927Z" fill="#424242"/>
<path d="M166 2.22368L162.823 7.64298C161.62 7.49186 160.185 7.3498 158.51 7.21077C156.838 7.07476 155.1 6.95386 153.296 6.85412C151.492 6.75437 149.779 6.70299 148.16 6.70299C146.542 6.70299 145.33 6.84807 144.297 7.13521C143.264 7.42234 142.487 7.86967 141.964 8.47114C141.442 9.07261 141.18 9.87659 141.18 10.8801C141.18 12.4094 141.624 13.4915 142.512 14.1171C143.4 14.7458 144.917 15.0571 147.058 15.0571C148.809 15.0571 150.686 14.8818 152.685 14.5312C154.684 14.1806 156.769 13.691 158.938 13.0623C161.107 12.4366 163.314 11.7203 165.562 10.9163V14.7942C164.388 15.447 163.059 16.1301 161.583 16.8464C160.106 17.5627 158.513 18.2277 156.8 18.8413C155.087 19.4578 153.289 19.9565 151.41 20.3464C149.527 20.7363 147.594 20.9298 145.607 20.9298C143.255 20.9298 141.183 20.6094 139.392 19.9686C137.6 19.3279 136.215 18.2881 135.236 16.8434C134.257 15.4017 133.765 13.5005 133.765 11.14C133.765 8.55577 134.398 6.53071 135.667 5.06179C136.936 3.59287 138.705 2.54709 140.979 1.91841C143.252 1.28974 145.894 0.978424 148.897 0.978424C152.348 0.978424 155.503 1.11141 158.365 1.37437C161.227 1.63732 163.768 1.92144 165.991 2.22066L166 2.22368ZM158.588 2.78889L166 2.26298V20.555H159.492L158.592 16.2268V2.78889H158.588Z" fill="#424242"/>
</svg>
