<?xml version="1.0" encoding="utf-8"?>
<!-- Generator: Adobe Illustrator 23.1.0, SVG Export Plug-In . SVG Version: 6.00 Build 0)  -->
<svg version="1.1" id="Layer_1" xmlns="http://www.w3.org/2000/svg" xmlns:xlink="http://www.w3.org/1999/xlink" x="0px" y="0px"
	 viewBox="0 0 152 22" style="enable-background:new 0 0 152 22;" xml:space="preserve">
<style type="text/css">
	.st0{fill:#FF6711;}
</style>
<path class="st0" d="M5.5,21H0V0.8h6.3l15.9,13.6V0.8h5.5V21h-6.2L5.5,7.1V21z"/>
<path class="st0" d="M46,15.5c1.8,0,3.4-0.1,4.9-0.2c1.5-0.1,2.8-0.3,3.9-0.4c1.1-0.2,2-0.3,2.7-0.4l1.4,5.3
	c-1.1,0.3-2.4,0.5-3.9,0.8c-1.5,0.2-3.1,0.4-4.7,0.5c-1.6,0.1-3.2,0.2-4.8,0.2c-3.4,0-6.2-0.4-8.4-1.1c-2.2-0.7-3.8-1.9-4.8-3.4
	c-1-1.5-1.5-3.5-1.5-6c0-2.4,0.6-4.5,1.7-6c1.1-1.5,2.7-2.6,4.9-3.4s4.8-1.1,7.9-1.1c2.2,0,4.1,0.2,5.9,0.5c1.8,0.3,3.3,0.8,4.5,1.5
	c1.3,0.7,2.2,1.6,2.9,2.8c0.7,1.1,1,2.5,1,4.1c0,0.3,0,0.7,0,1.1c0,0.4,0,0.9-0.1,1.2c0,0.4,0,0.7-0.1,0.8H34.2V8.7h19.2l-0.7,1.4
	c0-1.1-0.2-2-0.6-2.7c-0.4-0.7-1.2-1.2-2.3-1.5c-1.1-0.3-2.8-0.5-5.1-0.5c-2,0-3.6,0.2-4.7,0.5c-1.1,0.3-1.9,0.9-2.3,1.6
	C37.2,8.2,37,9.2,37,10.5c0,1,0.1,1.9,0.4,2.5c0.3,0.7,0.7,1.2,1.4,1.5c0.7,0.3,1.6,0.6,2.7,0.7C42.7,15.4,44.2,15.5,46,15.5
	L46,15.5z"/>
<path class="st0" d="M62.1,11.7V0.6h6.7v9.9c0,1,0.2,1.8,0.6,2.5c0.4,0.7,1.1,1.2,1.9,1.5c0.9,0.3,1.9,0.5,3.2,0.5
	c1.4,0,2.9-0.2,4.6-0.5c1.7-0.3,3.5-0.8,5.5-1.4c1.9-0.6,4-1.3,6.2-2.1v4.2c-1.1,0.6-2.3,1.3-3.7,2c-1.4,0.7-2.9,1.4-4.5,1.9
	c-1.6,0.6-3.3,1.1-5,1.5c-1.7,0.4-3.5,0.6-5.3,0.6c-2.2,0-4.1-0.3-5.6-1c-1.5-0.6-2.7-1.7-3.5-3C62.5,15.8,62.1,13.9,62.1,11.7
	L62.1,11.7z M91.4,0.6v20h-5.9l-0.8-4.8V0.6H91.4L91.4,0.6z"/>
<path class="st0" d="M99.7,21h-5.5V0.8h18.5c1.1,0,2.2,0.1,3.1,0.4c0.9,0.2,1.8,0.6,2.5,1.2c0.7,0.5,1.2,1.3,1.6,2.2
	c0.4,0.9,0.6,2,0.6,3.3c0,1.5-0.3,2.7-0.8,3.7c-0.5,1-1.3,1.7-2.2,2.3c-1,0.5-2.1,0.8-3.5,1l-1.2,0l1.5,1l6.1,5.2h-6.9l-6.6-5.9h-7
	L99.7,21L99.7,21z M99.7,5.9v4.7h12.5c0.9,0,1.6-0.2,2-0.5c0.4-0.4,0.6-0.9,0.6-1.8c0-0.9-0.2-1.5-0.6-1.9c-0.4-0.3-1.1-0.5-2-0.5
	H99.7z"/>
<path class="st0" d="M152,1.8l-2.9,5.6c-1.1-0.2-2.4-0.3-3.9-0.5c-1.5-0.1-3.1-0.3-4.8-0.4c-1.7-0.1-3.2-0.2-4.7-0.2
	c-1.5,0-2.6,0.2-3.5,0.5c-0.9,0.3-1.7,0.8-2.1,1.4c-0.5,0.6-0.7,1.5-0.7,2.5c0,1.6,0.4,2.7,1.2,3.4c0.8,0.7,2.2,1,4.2,1
	c1.6,0,3.3-0.2,5.2-0.5c1.8-0.4,3.7-0.9,5.7-1.5c2-0.7,4-1.4,6.1-2.2v4c-1.1,0.7-2.3,1.4-3.6,2.1c-1.4,0.7-2.8,1.4-4.4,2.1
	c-1.6,0.6-3.2,1.2-4.9,1.6c-1.7,0.4-3.5,0.6-5.3,0.6c-2.2,0-4.1-0.3-5.7-1c-1.6-0.7-2.9-1.8-3.8-3.3c-0.9-1.5-1.3-3.5-1.3-5.9
	c0-2.7,0.6-4.8,1.7-6.3c1.2-1.5,2.8-2.6,4.9-3.3c2.1-0.7,4.5-1,7.3-1c3.2,0,6,0.1,8.7,0.4C147.6,1.2,150,1.5,152,1.8L152,1.8z
	 M145.2,2.4l6.8-0.5v19.1h-6l-0.8-4.5L145.2,2.4L145.2,2.4z"/>
</svg>
