<svg width="16" height="18" viewBox="0 0 16 18" fill="none" xmlns="http://www.w3.org/2000/svg">
<path d="M11.1859 12.8566V5.20436C11.1859 5.20436 12.0833 6.64246 15.3271 6.7303C15.5002 6.73497 15.6433 6.59816 15.6433 6.4318V4.26921C15.6433 4.1083 15.5099 3.98081 15.3425 3.97149C12.8264 3.83467 11.6314 1.97913 11.5141 0.27751C11.5036 0.119708 11.3597 0 11.1956 0H8.63011C8.45952 0 8.32045 0.132924 8.32045 0.297722V12.4625C8.32045 13.784 7.27017 14.9337 5.89729 14.9959C4.32794 15.0674 3.05208 13.7723 3.24613 12.2417C3.38357 11.1604 4.28589 10.275 5.40813 10.125C5.63128 10.0955 5.84958 10.0931 6.0598 10.1157C6.24657 10.1359 6.4107 10.0022 6.4107 9.82183V7.6538C6.4107 7.49988 6.28862 7.36617 6.12853 7.35684C5.80674 7.33663 5.47685 7.34363 5.14212 7.38017C2.66722 7.64991 0.670155 9.57541 0.396064 11.9557C0.0346524 15.0954 2.58152 17.7532 5.77439 17.7532C8.76352 17.7532 11.1867 15.4234 11.1867 12.5496" fill="#424242" fill-opacity="0.65"/>
</svg>
