<svg width="28" height="28" viewBox="0 0 28 28" fill="none" xmlns="http://www.w3.org/2000/svg">
<path d="M5.48431 18.9463C4.508 19.9227 4.508 21.5056 5.48431 22.4819C6.46062 23.4582 8.04353 23.4582 9.01984 22.4819L5.48431 18.9463ZM27.855 2.61114C27.855 1.23043 26.7358 0.111138 25.355 0.111138H2.85505C1.47434 0.111138 0.355049 1.23043 0.355049 2.61114C0.355049 3.99185 1.47434 5.11114 2.85505 5.11114H22.855V25.1111C22.855 26.4918 23.9743 27.6111 25.355 27.6111C26.7358 27.6111 27.855 26.4918 27.855 25.1111V2.61114ZM9.01984 22.4819L27.1228 4.3789L23.5873 0.843371L5.48431 18.9463L9.01984 22.4819Z" fill="#FF6711"/>
</svg>
