<svg width="25" height="25" viewBox="0 0 25 25" fill="none" xmlns="http://www.w3.org/2000/svg">
<path d="M24.9956 12.5C24.9956 19.4037 19.3993 25 12.4956 25C5.59192 25 -0.00439453 19.4037 -0.00439453 12.5C-0.00439453 5.59631 5.59192 0 12.4956 0C19.3993 0 24.9956 5.59631 24.9956 12.5Z" fill="#424242"/>
<path d="M15.8874 5.94296H9.10448C7.35669 5.94296 5.93921 7.36044 5.93921 9.10823V15.8911C5.93921 17.6389 7.35669 19.0564 9.10448 19.0564H15.8874C17.6352 19.0564 19.0526 17.6389 19.0526 15.8911V9.10823C19.0526 7.36044 17.6352 5.94296 15.8874 5.94296ZM17.9221 15.6646C17.9221 16.9129 16.9091 17.9258 15.6609 17.9258H9.33097C8.08273 17.9258 7.0698 16.9129 7.0698 15.6646V9.33472C7.0698 8.08649 8.08273 7.07355 9.33097 7.07355H15.6615C16.9097 7.07355 17.9227 8.08649 17.9227 9.33472V15.6646H17.9221Z" fill="white"/>
<path d="M12.5025 9.10822C10.6307 9.10822 9.11133 10.6276 9.11133 12.4993C9.11133 14.3711 10.6307 15.8905 12.5025 15.8905C14.3742 15.8905 15.8936 14.3711 15.8936 12.4993C15.8936 10.6276 14.3742 9.10822 12.5025 9.10822ZM12.5025 14.7605C11.2567 14.7605 10.2413 13.7451 10.2413 12.4993C10.2413 11.2536 11.2567 10.2382 12.5025 10.2382C13.7482 10.2382 14.7636 11.2536 14.7636 12.4993C14.7636 13.7457 13.7482 14.7605 12.5025 14.7605Z" fill="white"/>
<path d="M16.1201 9.56004C16.4947 9.56004 16.7983 9.25651 16.7983 8.88209C16.7983 8.50766 16.4947 8.20413 16.1201 8.20413C15.7455 8.20413 15.4419 8.50766 15.4419 8.88209C15.4419 9.25651 15.7455 9.56004 16.1201 9.56004Z" fill="white"/>
</svg>
