<?xml version="1.0" encoding="UTF-8"?>
<svg id="Camada_1" data-name="Camada 1" xmlns="http://www.w3.org/2000/svg" viewBox="0 0 100 100">
  <defs>
    <style>
      .cls-1 {
        fill: #fff;
      }

      .cls-1, .cls-2 {
        stroke-width: 0px;
      }

      .cls-2 {
        fill: #ff6711;
      }
    </style>
  </defs>
  <path class="cls-2" d="M99,50c0,27.06-21.94,49-49,49h0C22.94,99,1,77.06,1,50h0C1,22.94,22.94,1,50,1h0c27.06,0,49,21.94,49,49h0Z"/>
  <path class="cls-1" d="M63.29,24.3h-26.59c-6.85,0-12.41,5.56-12.41,12.41v26.59c0,6.85,5.56,12.41,12.41,12.41h26.59c6.85,0,12.41-5.56,12.41-12.41v-26.59c0-6.85-5.56-12.41-12.41-12.41ZM71.27,62.41c0,4.89-3.97,8.86-8.86,8.86h-24.82c-4.89,0-8.86-3.97-8.86-8.86v-24.82c0-4.89,3.97-8.86,8.86-8.86h24.82c4.89,0,8.86,3.97,8.86,8.86v24.82Z"/>
  <path class="cls-1" d="M50.03,36.71c-7.34,0-13.29,5.96-13.29,13.29s5.96,13.29,13.29,13.29,13.29-5.96,13.29-13.29-5.96-13.29-13.29-13.29ZM50.03,58.86c-4.88,0-8.86-3.98-8.86-8.86s3.98-8.86,8.86-8.86,8.86,3.98,8.86,8.86-3.98,8.86-8.86,8.86Z"/>
  <circle class="cls-1" cx="64.21" cy="35.82" r="2.66"/>
</svg>