<svg width="26" height="25" viewBox="0 0 26 25" fill="none" xmlns="http://www.w3.org/2000/svg">
<path d="M25.7717 12.5C25.7717 19.4037 20.1754 25 13.2717 25C6.36804 25 0.771729 19.4037 0.771729 12.5C0.771729 5.59631 6.36804 0 13.2717 0C20.1754 0.000629152 25.7717 5.59694 25.7717 12.5Z" fill="#424242"/>
<path d="M15.7494 15.7206V9.52727C15.7494 9.52727 16.4477 10.6912 18.9719 10.7623C19.1065 10.7661 19.2179 10.6553 19.2179 10.5207V8.77039C19.2179 8.64016 19.1141 8.53698 18.9838 8.52943C17.0259 8.4187 16.096 6.91691 16.0048 5.5397C15.9966 5.41198 15.8846 5.31509 15.7569 5.31509H13.7606C13.6278 5.31509 13.5196 5.42268 13.5196 5.55606V15.4017C13.5196 16.4712 12.7024 17.4017 11.6341 17.4521C10.4129 17.51 9.42008 16.4618 9.57107 15.223C9.67803 14.3478 10.3802 13.6312 11.2534 13.5098C11.4271 13.4859 11.5969 13.484 11.7605 13.5023C11.9059 13.5186 12.0336 13.4104 12.0336 13.2644V11.5097C12.0336 11.3852 11.9386 11.2769 11.814 11.2694C11.5636 11.253 11.3069 11.2587 11.0464 11.2883C9.1206 11.5066 7.56659 13.065 7.35331 14.9915C7.07208 17.5326 9.05391 19.6837 11.5384 19.6837C13.8644 19.6837 15.75 17.7981 15.75 15.4721" fill="white"/>
</svg>
